<svg width="300" height="300" xmlns="http://www.w3.org/2000/svg">

 <g>
  <title>background</title>
  <rect fill="none" id="canvas_background" height="402" width="582" y="-1" x="-1"/>
 </g>
 <g>
  <title>Layer 1</title>
  <g transform="rotate(-180 150,150.05850219726562) matrix(1,0,0,1,150,150) " id="widget">
   <path id="svg_1" fill="#000000" d="m0,109.114l0,0c-60.2997,0 -109.114,-48.8143 -109.114,-109.114l0,0c0,-60.2997 48.8143,-109.114 109.114,-109.114l0,0c60.2997,0 109.114,48.8143 109.114,109.114l0,0c0,60.2997 -48.8143,109.114 -109.114,109.114z"/>
   <path id="svg_2" fill="#ee0016" d="m-68.9569,71.1378l0,0c-38.0931,-38.0934 -38.0931,-99.7684 0,-137.8618l0,0c38.0934,-38.093 99.7684,-38.093 137.8618,0l0,0c38.0931,38.0934 38.0931,99.7684 0,137.8618l0,0c-38.0934,38.0932 -99.7684,38.0932 -137.8618,0z"/>
   <path id="svg_3" fill="#ffffff" d="m97.5009,-2.1679c0,-53.8821 -43.6188,-97.501 -97.5009,-97.501c-53.8821,0 -97.5009,43.6189 -97.5009,97.501l195.0018,0z"/>
   <path id="svg_4" fill="#bebebe" d="m-8.20965,15.2948l0,0c-7.23275,-4.1759 -9.70745,-13.41139 -5.53155,-20.64416l0,0c4.17581,-7.23274 13.41134,-9.70744 20.64411,-5.53154l0,0c7.23279,4.1758 9.70739,13.41134 5.53159,20.6441l0,0c-4.17585,7.2328 -13.41138,9.7074 -20.64415,5.5316z"/>
   <path id="svg_5" fill="#000000" d="m20.3821,14.3518c-6.7039,11.6116 -21.56873,15.5946 -33.1803,8.8906c-11.6116,-6.7039 -15.5946,-21.56873 -8.8907,-33.18034c6.704,-11.61156 21.56879,-15.59466 33.1804,-8.89066c11.6116,6.704 15.5946,21.56878 8.8906,33.1804zm-13.74855,-24.7662c-6.98379,-4.0321 -15.87613,-1.6494 -19.90825,5.33441c-4.0321,6.98379 -1.6494,15.87609 5.33441,19.90819c6.98379,4.0321 15.87614,1.6494 19.90819,-5.33436c4.0321,-6.98379 1.6494,-15.87613 -5.33435,-19.90824z"/>
   <path id="svg_6" fill="#000000" d="m97.4528,-2.19392l0,4.38784l-82.9889,0l0,-4.38784l82.9889,0z"/>
   <path id="svg_7" fill="#000000" d="m-15.7706,-2.19392l0,4.38784l-82.3522,0l0,-4.38784l82.3522,0z"/>
  </g>
 </g>
</svg>